<svg width="184" height="184" viewBox="0 0 184 184" fill="none" xmlns="http://www.w3.org/2000/svg">
<path fill-rule="evenodd" clip-rule="evenodd" d="M49.0689 16.7309C56.4664 16.1403 63.4889 13.2306 69.1364 8.41639C75.515 2.98369 83.6198 0 91.9984 0C100.377 0 108.482 2.98369 114.86 8.41639C120.508 13.2306 127.53 16.1403 134.928 16.7309C143.282 17.3985 151.125 21.02 157.051 26.9459C162.977 32.8719 166.598 40.7149 167.266 49.0689C167.852 56.4634 170.762 63.4899 175.58 69.1364C181.013 75.515 183.997 83.6198 183.997 91.9984C183.997 100.377 181.013 108.482 175.58 114.86C170.766 120.508 167.857 127.53 167.266 134.928C166.598 143.282 162.977 151.125 157.051 157.051C151.125 162.977 143.282 166.598 134.928 167.266C127.53 167.857 120.508 170.766 114.86 175.58C108.482 181.013 100.377 183.997 91.9984 183.997C83.6198 183.997 75.515 181.013 69.1364 175.58C63.4889 170.766 56.4664 167.857 49.0689 167.266C40.7149 166.598 32.8719 162.977 26.9459 157.051C21.02 151.125 17.3985 143.282 16.7309 134.928C16.1403 127.53 13.2306 120.508 8.41639 114.86C2.98369 108.482 0 100.377 0 91.9984C0 83.6198 2.98369 75.515 8.41639 69.1364C13.2306 63.4889 16.1403 56.4664 16.7309 49.0689C17.3985 40.7149 21.02 32.8719 26.9459 26.9459C32.8719 21.02 40.7149 17.3985 49.0689 16.7309ZM134.629 77.1289C136.724 74.96 137.883 72.055 137.857 69.0398C137.83 66.0245 136.621 63.1402 134.489 61.008C132.357 58.8758 129.472 57.6663 126.457 57.6401C123.442 57.6139 120.537 58.7731 118.368 60.8679L80.4984 98.7374L65.6289 83.8679C63.46 81.7731 60.555 80.6139 57.5398 80.6401C54.5245 80.6663 51.6402 81.8758 49.508 84.008C47.3758 86.1402 46.1663 89.0245 46.1401 92.0398C46.1139 95.055 47.2731 97.96 49.3679 100.129L72.3679 123.129C74.5245 125.285 77.449 126.496 80.4984 126.496C83.5478 126.496 86.4723 125.285 88.6289 123.129L134.629 77.1289Z" fill="#00E741"/>
</svg>
